<svg id="Flat" height="512" viewBox="0 0 512 512" width="512" xmlns="http://www.w3.org/2000/svg"><path d="m40 56h304v432h-304z" fill="#2d7dbf"/><path d="m88 24h304v424h-304z" fill="#4db7e5"/><g fill="#2d7dbf"><path d="m120 56h240v32h-240z"/><path d="m112 280h152v16h-152z"/><path d="m120 232h16v32h-16z"/><path d="m160 216h16v48h-16z"/><path d="m200 232h16v32h-16z"/><path d="m240 248h16v16h-16z"/><path d="m112 400h152v16h-152z"/><path d="m120 352h16v32h-16z"/><path d="m160 336h16v48h-16z"/><path d="m200 352h16v32h-16z"/><path d="m240 320h16v64h-16z"/><path d="m144 112h32v16h-32z"/><path d="m192 112h176v16h-176z"/><path d="m112 144h80v16h-80z"/><path d="m208 144h160v16h-160z"/><path d="m112 176h152v16h-152z"/><path d="m280 176h56v16h-56z"/></g><path d="m312 224h160v224h-160z" fill="#ea4a3b"/><path d="m344 256h96v32h-96z" fill="#fdb62f"/><path d="m344 320h32v32h-32z" fill="#bdbdba"/><path d="m408 320h32v32h-32z" fill="#bdbdba"/><path d="m344 384h32v32h-32z" fill="#bdbdba"/><path d="m408 384h32v32h-32z" fill="#bdbdba"/></svg>