<svg id="Flat" height="512" viewBox="0 0 512 512" width="512" xmlns="http://www.w3.org/2000/svg"><path d="m488 80v48h-464v-48l232-56z" fill="#f35244"/><path d="m256 104a24 24 0 1 1 24-24 24.02625 24.02625 0 0 1 -24 24zm0-32a8 8 0 1 0 8 8 8.01042 8.01042 0 0 0 -8-8z" fill="#fb685b"/><path d="m64 192h32v32h-32z" fill="#db4132"/><path d="m96 192h32v32h-32z" fill="#db4132"/><path d="m96 224h32v168h-32z" fill="#ea4a3b"/><path d="m64 224h32v168h-32z" fill="#ea4a3b"/><path d="m192 192h32v32h-32z" fill="#db4132"/><path d="m192 224h32v168h-32z" fill="#ea4a3b"/><path d="m288 192h32v32h-32z" fill="#db4132"/><path d="m288 224h32v168h-32z" fill="#ea4a3b"/><path d="m384 192h32v32h-32z" fill="#db4132"/><path d="m416 192h32v32h-32z" fill="#db4132"/><path d="m384 224h32v168h-32z" fill="#ea4a3b"/><path d="m416 224h32v168h-32z" fill="#ea4a3b"/><path d="m104 192h-40a16 16 0 0 1 -16-16v-16h56z" fill="#f35244"/><path d="m48 160h56v16h-56z" fill="#ea4a3b"/><path d="m72 176v-16h32v32h-16a16.00016 16.00016 0 0 1 -16-16z" fill="#db4132"/><path d="m88 160h56a0 0 0 0 1 0 0v16a16 16 0 0 1 -16 16h-24a16 16 0 0 1 -16-16v-16a0 0 0 0 1 0 0z" fill="#f35244"/><path d="m176 160h64a0 0 0 0 1 0 0v16a16 16 0 0 1 -16 16h-32a16 16 0 0 1 -16-16v-16a0 0 0 0 1 0 0z" fill="#f35244"/><path d="m408 192h40a16 16 0 0 0 16-16v-16h-56z" fill="#f35244"/><path d="m408 160h56v16h-56z" fill="#ea4a3b"/><path d="m440 176v-16h-32v32h16a16.00016 16.00016 0 0 0 16-16z" fill="#db4132"/><path d="m384 160h24a16 16 0 0 1 16 16v16a0 0 0 0 1 0 0h-56a0 0 0 0 1 0 0v-16a16 16 0 0 1 16-16z" fill="#f35244" transform="matrix(-1 0 0 -1 792 352)"/><path d="m288 160h32a16 16 0 0 1 16 16v16a0 0 0 0 1 0 0h-64a0 0 0 0 1 0 0v-16a16 16 0 0 1 16-16z" fill="#f35244" transform="matrix(-1 0 0 -1 608 352)"/><g fill="#ea4a3b"><path d="m368 160h56v16h-56z"/><path d="m272 160h64v16h-64z"/><path d="m176 160h64v16h-64z"/><path d="m88 160h56v16h-56z"/></g><path d="m408 392h40a16 16 0 0 1 16 16v16h-56z" fill="#f35244"/><path d="m408 408h56v16h-56z" fill="#ea4a3b" transform="matrix(-1 0 0 -1 872 832)"/><path d="m440 408v16h-32v-32h16a16.00016 16.00016 0 0 1 16 16z" fill="#db4132"/><path d="m368 392h56a0 0 0 0 1 0 0v16a16 16 0 0 1 -16 16h-24a16 16 0 0 1 -16-16v-16a0 0 0 0 1 0 0z" fill="#f35244" transform="matrix(-1 0 0 -1 792 816)"/><path d="m272 392h64a0 0 0 0 1 0 0v16a16 16 0 0 1 -16 16h-32a16 16 0 0 1 -16-16v-16a0 0 0 0 1 0 0z" fill="#f35244" transform="matrix(-1 0 0 -1 608 816)"/><path d="m104 392h-40a16 16 0 0 0 -16 16v16h56z" fill="#f35244"/><path d="m48 408h56v16h-56z" fill="#ea4a3b" transform="matrix(-1 0 0 -1 152 832)"/><path d="m72 408v16h32v-32h-16a16.00016 16.00016 0 0 0 -16 16z" fill="#db4132"/><path d="m104 392h24a16 16 0 0 1 16 16v16a0 0 0 0 1 0 0h-56a0 0 0 0 1 0 0v-16a16 16 0 0 1 16-16z" fill="#f35244"/><path d="m192 392h32a16 16 0 0 1 16 16v16a0 0 0 0 1 0 0h-64a0 0 0 0 1 0 0v-16a16 16 0 0 1 16-16z" fill="#f35244"/><path d="m88 408h56v16h-56z" fill="#ea4a3b" transform="matrix(-1 0 0 -1 232 832)"/><path d="m176 408h64v16h-64z" fill="#ea4a3b" transform="matrix(-1 0 0 -1 416 832)"/><path d="m272 408h64v16h-64z" fill="#ea4a3b" transform="matrix(-1 0 0 -1 608 832)"/><path d="m368 408h56v16h-56z" fill="#ea4a3b" transform="matrix(-1 0 0 -1 792 832)"/><path d="m96 224h-16v-16h-16v-16h32z" fill="#ba3327"/><path d="m80 224h16v168h-16z" fill="#db4132"/><path d="m416 224h16v-16h16v-16h-32z" fill="#ba3327"/><path d="m416 224h16v168h-16z" fill="#db4132" transform="matrix(-1 0 0 -1 848 616)"/><path d="m48 424h416v32h-416z" fill="#f35244"/><path d="m24 456h464v32h-464z" fill="#ea4a3b"/><path d="m296 72h16v16h-16z" fill="#fb685b"/><path d="m200 72h16v16h-16z" fill="#fb685b"/><path d="m48 128h416v32h-416z" fill="#f35244"/><path d="m96 192h32v16h-32z" fill="#cf3b2e"/><path d="m192 192h32v16h-32z" fill="#cf3b2e"/><path d="m288 192h32v16h-32z" fill="#cf3b2e"/><path d="m384 192h32v16h-32z" fill="#cf3b2e"/><path d="m48 128h416v16h-416z" fill="#ea4a3b"/><path d="m416 312h-24a168.41253 168.41253 0 0 0 -86.64753-24h-89.35247v128h136l40-24h24z" fill="#ff9f9b"/><path d="m120 256 136 232 128-72-136-232z" fill="#448703"/><path d="m248 184-96.873 54.491 136 232 96.873-54.491z" fill="#95cb37"/><path d="m192.87988 214.96a46.90242 46.90242 0 0 1 7.12012 25.04 47.66665 47.66665 0 0 1 -23.75977 41.35986l-25.12011-42.87986z" fill="#69a709"/><path d="m272.24023 225.35986a47.07192 47.07192 0 0 1 -24.24023 6.64014 47.97419 47.97419 0 0 1 -41.83984-24.48l41.83984-23.52z" fill="#69a709"/><path d="m328.87988 446.96-41.75976 23.52-23.36035-39.84033a47.07625 47.07625 0 0 1 24.24023-6.63967 47.884 47.884 0 0 1 40.87988 22.96z" fill="#69a709"/><path d="m384 416-41.83984 23.52a47.91113 47.91113 0 0 1 17.59961-64.88037z" fill="#69a709"/><path d="m448 280h48v160h-48z" fill="#3487cb"/><path d="m207.334 334.375-31.127 17.508 29.096 49.634 31.127-17.509z" fill="#f98500"/><path d="m236.43 384.008 96.873-54.491-29.303-49.517-96.666 54.375z" fill="#fca713"/><path d="m416 296h32v112h-32z" fill="#4db7e5"/><path d="m284 340a16.97434 16.97434 0 0 0 1.29971 25.17555c6.871 5.62061 17.1074 4.41734 23.38439-1.85965l19.3159-19.3159 8.01494 8.01494a33.92 33.92 0 0 0 47.97012 0l32.01494-32.01494v-8h-24a168.34926 168.34926 0 0 0 -82.96143-23.875l9.918 16.91846z" fill="#ffdad2"/></svg>