<svg width="512" height="512" viewBox="0 0 512 512" fill="none" xmlns="http://www.w3.org/2000/svg">
<g clip-path="url(#clip0_1973_14543)">
<path d="M256 512C397.385 512 512 397.385 512 256C512 114.615 397.385 0 256 0C114.615 0 0 114.615 0 256C0 397.385 114.615 512 256 512Z" fill="#343A6E"/>
<path d="M256 431.814C375.242 431.814 471.907 335.149 471.907 215.907C471.907 96.6649 375.242 0 256 0C136.758 0 40.0928 96.6649 40.0928 215.907C40.0928 335.149 136.758 431.814 256 431.814Z" fill="#484B7F"/>
<path d="M213.88 309.75C299.415 309.75 368.755 240.41 368.755 154.875C368.755 69.3399 299.415 0 213.88 0C128.345 0 59.0049 69.3399 59.0049 154.875C59.0049 240.41 128.345 309.75 213.88 309.75Z" fill="#EF487D"/>
<path d="M213.881 286.762C141.158 286.762 81.9941 227.598 81.9941 154.875C81.9931 82.1523 141.157 22.9883 213.881 22.9883C286.604 22.9883 345.768 82.1523 345.768 154.875C345.767 227.598 286.603 286.762 213.881 286.762Z" fill="#FF668C"/>
<path d="M403.937 353.667V450.08C403.937 455.399 403.55 460.633 402.777 465.764C361.221 494.905 310.617 512 256 512C201.686 512 151.333 495.094 109.902 466.244C108.679 457.707 108.053 449.066 108.053 440.362V334.158C108.053 326.112 111.313 318.829 116.59 313.553C117.917 312.226 119.369 311.024 120.926 309.979C125.565 306.855 131.166 305.026 137.185 305.026C153.276 305.026 166.317 318.066 166.317 334.158V309.75C166.317 301.704 169.577 294.432 174.854 289.155C180.131 283.878 187.414 280.618 195.459 280.618C211.54 280.618 224.591 293.669 224.591 309.75V299.844C224.591 291.798 227.851 284.515 233.117 279.239C238.394 273.973 245.677 270.713 253.722 270.713C269.813 270.713 282.854 283.753 282.854 299.845V174.153C282.854 166.107 286.114 158.824 291.38 153.558C292.707 152.231 294.159 151.029 295.727 149.974C300.565 146.714 306.437 144.864 312.748 145.032C328.641 145.44 341.117 158.908 341.117 174.812V379.758C341.117 364.095 346.853 349.78 356.331 338.777C357.355 337.586 358.41 336.447 359.518 335.339L359.863 334.994C376.215 318.892 403.937 330.71 403.937 353.667Z" fill="#F9D5A9"/>
<path d="M295.729 149.973V360.259C295.729 363.814 292.847 366.696 289.292 366.696C285.737 366.696 282.855 363.814 282.855 360.259V174.152C282.855 166.106 286.115 158.823 291.381 153.557C292.709 152.23 294.162 151.029 295.729 149.973Z" fill="#E5A379"/>
<path d="M237.466 275.664V372.087C237.466 375.642 234.584 378.524 231.029 378.524C227.474 378.524 224.592 375.642 224.592 372.087V299.843C224.592 291.797 227.852 284.514 233.118 279.248C234.446 277.921 235.898 276.719 237.466 275.664Z" fill="#E5A379"/>
<path d="M179.192 285.57V379.402C179.192 382.957 176.31 385.839 172.755 385.839C169.2 385.839 166.318 382.957 166.318 379.402V309.749C166.318 301.703 169.578 294.42 174.844 289.154C176.172 287.827 177.624 286.625 179.192 285.57Z" fill="#E5A379"/>
<path d="M120.926 309.979V473.506C117.185 471.176 113.507 468.751 109.902 466.243C108.679 457.707 108.053 449.066 108.053 440.362V334.158C108.053 326.112 111.313 318.829 116.59 313.553C117.917 312.226 119.369 311.024 120.926 309.979Z" fill="#E5A379"/>
<path d="M356.333 338.775V441.969C356.333 446.171 352.928 449.576 348.726 449.576C344.524 449.576 341.119 446.171 341.119 441.969V379.756C341.119 364.093 346.856 349.778 356.333 338.775Z" fill="#E5A379"/>
<path d="M270.332 185.711L239.495 154.873L270.332 124.036C273.295 121.073 273.295 116.267 270.332 113.304L255.45 98.4225C252.487 95.4595 247.681 95.4595 244.718 98.4225L213.881 129.259L183.043 98.4215C180.08 95.4585 175.274 95.4585 172.311 98.4215L157.43 113.302C154.467 116.265 154.467 121.071 157.43 124.034L188.268 154.872L157.431 185.709C154.468 188.672 154.468 193.478 157.431 196.441L172.312 211.322C175.275 214.285 180.081 214.285 183.044 211.322L213.881 180.485L244.719 211.323C247.682 214.286 252.488 214.286 255.451 211.323L270.332 196.442C273.295 193.481 273.295 188.675 270.332 185.711Z" fill="white"/>
</g>
<defs>
<clipPath id="clip0_1973_14543">
<rect width="512" height="512" fill="white"/>
</clipPath>
</defs>
</svg>
