<svg id="Capa_1" enable-background="new 0 0 512 512" height="512" viewBox="0 0 512 512" width="512" xmlns="http://www.w3.org/2000/svg"><g><path d="m362 100.699v111.301h-141.301l-30-30h-160.699v-182h233.301l38.699 62z" fill="#f3f5f9"/><path d="m190.699 182 30 30h141.301v-111.301l-60-38.699-38.699-62h-111.301v182z" fill="#e1e6f0"/><g><path d="m362 100.699h-98.699v-100.699z" fill="#f3f5f9"/></g><g><path d="m321.219 452h-321.219v-300h203.211l30 30h158.789v119.224l-12.891 1.831c-60.341 8.543-94.281 74.297-68.438 127.368z" fill="#ffdf40"/></g><path d="m152 452h169.219l-10.547-21.577c-25.844-53.071 8.097-118.826 68.438-127.368l12.89-1.831v-119.224h-158.789l-30-30h-51.211z" fill="#ffbe40"/><g id="Result_2_"><g><path d="m392 512c-64.734 0-120-52.707-120-120 0-65.84 54.056-120 120-120 66.182 0 120 53.833 120 120s-53.818 120-120 120z" fill="#aed957"/></g><path d="m512 392c0-66.167-53.818-120-120-120v240c66.182 0 120-53.833 120-120z" fill="#72bf4c"/><g><path d="m377 443.211-40.605-40.606 21.21-21.21 19.395 19.394 49.395-49.394 21.21 21.21z" fill="#f3f5f9"/></g><path d="m392 428.211 55.605-55.606-21.21-21.21-34.395 34.394z" fill="#e1e6f0"/><g><path d="m92 92h120v30h-120z" fill="#6cf"/></g><path d="m152 92h60v30h-60z" fill="#59abff"/></g></g></svg>