<svg width="512" height="512" viewBox="0 0 512 512" fill="none" xmlns="http://www.w3.org/2000/svg">
<g clip-path="url(#clip0_1973_14571)">
<path d="M482.195 412.83L487.205 421.03L100.722 506.198L104.541 499.128L477.183 412.83H482.195Z" fill="white"/>
<path d="M494.849 396.527L129.407 479.74L113.865 493.482L115.205 501.796L508.439 410.025L511.172 399.928L494.849 396.527Z" fill="#E1E6E9"/>
<path d="M408.871 242.311L42.1885 316.65L113.433 493.901L511.172 399.927L408.871 242.311Z" fill="#EBF0F3"/>
<path d="M492.875 371.738L100.622 462.027L56.3125 351.789L429.259 273.725L492.875 371.738Z" fill="#44C4A1"/>
<path d="M427.624 407.328L194.592 461.854L191.667 455.406L424.03 401.33L427.624 407.328Z" fill="#64798A"/>
<path d="M266.605 300.741L146.046 325.824L143.5 320.303L263.727 295.418L266.605 300.741Z" fill="#64798A"/>
<path d="M106.685 310.205L76.6738 316.324L70.0801 340.072L94.2759 357.978L124.933 351.485L130.744 327.467L106.685 310.205Z" fill="#E56353"/>
<path d="M328.578 287.846L314.345 290.807L306.192 276.576L320.324 273.676L328.578 287.846Z" fill="#D5D6DB"/>
<path d="M345.528 284.32L331.382 287.262L323.109 273.105L337.154 270.223L345.528 284.32Z" fill="#D5D6DB"/>
<path d="M362.375 280.815L348.317 283.74L339.923 269.656L353.884 266.791L362.375 280.815Z" fill="#D5D6DB"/>
<path d="M379.119 277.331L365.146 280.238L356.635 266.226L370.51 263.379L379.119 277.331Z" fill="#D5D6DB"/>
<path d="M395.76 273.869L381.872 276.758L373.244 262.819L387.036 259.988L395.76 273.869Z" fill="#D5D6DB"/>
<path d="M412.299 270.427L398.496 273.299L389.753 259.432L403.462 256.619L412.299 270.427Z" fill="#D5D6DB"/>
<path d="M316.364 333.196L87.6229 382.562L85.1792 376.643L313.272 327.672L316.364 333.196Z" fill="#EBF0F3"/>
<path d="M328.524 354.923L97.2408 405.863L94.7314 399.784L325.352 349.258L328.524 354.923Z" fill="#EBF0F3"/>
<path d="M341 377.214L107.119 429.793L104.542 423.548L337.746 371.4L341 377.214Z" fill="#EBF0F3"/>
<path d="M471.335 362.676L366.8 386.465L363.445 380.594L467.7 356.996L471.335 362.676Z" fill="#EBF0F3"/>
<path d="M448.488 326.975L345.72 349.58L331.022 323.861L432.546 302.064L448.488 326.975Z" fill="#EBF0F3"/>
<path d="M113.865 493.481L103.136 464.244L71.7544 467.195L81.4106 500.99L86.2388 502.063L113.865 493.481Z" fill="#E56353"/>
<path d="M104.208 471.218L113.865 493.481C113.865 493.481 122.793 493.724 117.611 481.251C112.43 468.778 102.599 457.271 102.599 457.271H93.2114" fill="#F6C358"/>
<path d="M76.5772 478.449L86.2387 502.064L87.8481 510.111C87.8481 510.111 69.5106 517.652 61.647 499.13L55.6616 462.369L69.8772 458.346" fill="#F6C358"/>
<path d="M117.612 481.251L61.2992 345.698L46.446 308.956C42.0127 290.59 -4.13313 301.729 0.300205 320.094L13.0148 357.046L61.6471 499.129C56.6971 477.758 106.485 464.285 117.612 481.251Z" fill="#FCD462"/>
<path d="M113.865 493.48L115.205 501.795L87.8481 510.11L86.2388 502.063L113.865 493.48Z" fill="#64798A"/>
<path d="M463.826 40.7027L459.555 38.0882L462.056 34.0027L457.518 31.2246L397.495 129.269L402.032 132.048L446.355 59.6486L450.626 62.2632L463.826 40.7027Z" fill="#2F4859"/>
<path d="M437.569 81.0352L341.494 241.577L369.701 258.846L467.423 99.2237C460.92 96.3383 443.733 85.8456 437.569 81.0352Z" fill="#64798A"/>
<path d="M282.413 360.244L282.411 360.247C280.642 363.136 279.324 366.276 278.5 369.561L277.563 373.305C277.309 374.318 277.742 375.378 278.634 375.924C279.524 376.47 280.667 376.373 281.453 375.687L284.358 373.155C286.913 370.925 289.113 368.32 290.884 365.429L282.413 360.244Z" fill="#64798A"/>
<path d="M369.701 258.845L341.494 241.576L302.161 305.823C300.662 308.272 299.253 310.779 298.013 313.369C290.98 328.063 285.514 343.483 281.723 359.685C281.627 360.095 281.807 360.528 282.165 360.747L290.554 365.882C290.907 366.099 291.366 366.069 291.688 365.807C304.48 355.433 315.852 343.419 325.881 329.849C327.387 327.813 328.783 325.677 330.106 323.517L369.701 258.845Z" fill="#3A556A"/>
<path d="M347.761 231.102L346.312 233.524C356.448 240.622 363.176 244.677 374.679 250.712L376.153 248.304C364.608 242.251 357.931 238.234 347.761 231.102Z" fill="#D5D6DB"/>
<path d="M352.919 222.482L351.47 224.905C361.652 232.039 368.385 236.1 379.92 242.151L381.394 239.743C369.821 233.674 363.135 229.651 352.919 222.482Z" fill="#D5D6DB"/>
<path d="M358.077 213.863L356.628 216.286C366.857 223.456 373.596 227.523 385.161 233.59L386.635 231.182C375.03 225.097 368.34 221.066 358.077 213.863Z" fill="#D5D6DB"/>
<path d="M363.236 205.244L361.785 207.667C372.06 214.873 378.805 218.945 390.402 225.031L391.876 222.622C380.239 216.519 373.546 212.484 363.236 205.244Z" fill="#D5D6DB"/>
<path d="M368.395 196.625L366.946 199.048C377.267 206.289 384.016 210.368 395.645 216.469L397.119 214.06C385.45 207.942 378.752 203.903 368.395 196.625Z" fill="#D5D6DB"/>
<path d="M400.885 207.907L402.359 205.499C390.66 199.363 383.956 195.318 373.552 188.004L372.103 190.427C382.472 197.707 389.225 201.789 400.885 207.907Z" fill="#D5D6DB"/>
<path d="M342.604 239.722C342.585 239.709 342.564 239.694 342.544 239.68L341.112 242.115C351.227 249.195 357.949 253.246 369.439 259.274L370.913 256.866C359.399 250.829 352.727 246.818 342.604 239.722Z" fill="#D5D6DB"/>
<path d="M467.423 99.2218L510.109 29.4967L470.484 26.377L468.551 29.2613L437.569 81.0342C443.732 85.8447 460.92 96.3374 467.423 99.2218Z" fill="#3A556A"/>
<path d="M510.149 28.8058C509.793 25.8235 500.613 22.9954 489.644 22.4902C478.675 21.9839 470.075 23.9933 470.432 26.9756C470.788 29.9579 479.968 32.786 490.937 33.2923C501.906 33.7985 510.506 31.7891 510.149 28.8058Z" fill="#3A556A"/>
<path d="M502.703 28.4633C502.48 26.5987 496.743 24.832 489.887 24.5154C483.031 24.1998 477.655 25.455 477.878 27.3195C478.101 29.1841 483.839 30.9518 490.695 31.2675C497.55 31.5831 502.926 30.3279 502.703 28.4633Z" fill="#2F4859"/>
<path d="M494.072 1.3729L479.076 25.8667L478.056 27.5323C478.68 29.3146 484.108 30.9635 490.695 31.2677C494.878 31.4604 498.492 31.0625 500.636 30.3042L502.16 27.8146L511.729 12.1844C514.378 7.85936 496.719 -2.95105 494.072 1.3729Z" fill="#EBF0F3"/>
</g>
<defs>
<clipPath id="clip0_1973_14571">
<rect width="512" height="512" fill="white"/>
</clipPath>
</defs>
</svg>
