<svg height="512" viewBox="0 0 58 51" width="512" xmlns="http://www.w3.org/2000/svg"><g id="Page-1" fill="none" fill-rule="evenodd"><g id="006---Payment-Denied" fill-rule="nonzero"><path id="Shape" d="m24.03 33h-18.03c-3.3137085 0-6-2.6862915-6-6v-21c0-3.3137085 2.6862915-6 6-6h38c3.3137085 0 6 2.6862915 6 6v13.58z" fill="#2fa8cc"/><path id="Shape" d="m9 5v4h-4v-2c.0032948-1.10320187.89679813-1.9967052 2-2z" fill="#f29c1f"/><path id="Shape" d="m15 7v2h-6v-4h4c1.1032019.0032948 1.9967052.89679813 2 2z" fill="#f0c419"/><path id="Shape" d="m15 9v2c-.0032948 1.1032019-.8967981 1.9967052-2 2h-4v-4z" fill="#f29c1f"/><path id="Shape" d="m9 9v4h-2c-1.10320187-.0032948-1.9967052-.8967981-2-2v-2z" fill="#f0c419"/><g fill="#ecf0f1"><path id="Shape" d="m13 22h-6c-.55228475 0-1-.4477153-1-1s.44771525-1 1-1h6c.5522847 0 1 .4477153 1 1s-.4477153 1-1 1z"/><path id="Shape" d="m23 22h-6c-.5522847 0-1-.4477153-1-1s.4477153-1 1-1h6c.5522847 0 1 .4477153 1 1s-.4477153 1-1 1z"/><path id="Shape" d="m34 22h-7c-.5522847 0-1-.4477153-1-1s.4477153-1 1-1h7c.5522847 0 1 .4477153 1 1s-.4477153 1-1 1z"/><path id="Shape" d="m9 28h-2c-.55228475 0-1-.4477153-1-1s.44771525-1 1-1h2c.55228475 0 1 .4477153 1 1s-.44771525 1-1 1z"/><path id="Shape" d="m16 28h-2c-.5522847 0-1-.4477153-1-1s.4477153-1 1-1h2c.5522847 0 1 .4477153 1 1s-.4477153 1-1 1z"/></g><circle id="Oval" cx="42" cy="9" fill="#f0c419" r="3"/><circle id="Oval" cx="36" cy="9" fill="#ecf0f1" r="3"/><circle id="Oval" cx="41" cy="34" fill="#e64c3c" r="17"/><path id="Shape" d="m49.92 41.608c-1.7009403-3.9635186-4.2120303-7.5274815-7.372-10.463 2.0681329-1.7091245 4.3608113-3.1266552 6.814-4.213.5000049-.2092525.742277-.7787576.5462669-1.2841006-.1960102-.5053429-.7589366-.7625313-1.2692669-.5798994-2.7653955 1.1867142-5.3396847 2.776647-7.639 4.718-2.2993153-1.941353-4.8736045-3.5312858-7.639-4.718-.5103303-.1826319-1.0732567.0745565-1.2692669.5798994-.1960101.505343.046262 1.0748481.5462669 1.2841006 2.4531887 1.0863448 4.7458671 2.5038755 6.814 4.213-3.1599697 2.9355185-5.6710597 6.4994814-7.372 10.463-.1039737.2439982-.1067566.5193072-.0077364.7653573.0990202.2460502.2917315.4426846.5357364.5466427.1238521.0530935.2572478.0803171.392.08.4007992.0000139.7628867-.2392787.92-.608 1.6281549-3.7696643 4.0418879-7.1485496 7.08-9.911 3.0381121 2.7624504 5.4518451 6.1413357 7.08 9.911.1571133.3687213.5192008.6080139.92.608.1347522.0003171.2681479-.0269065.392-.08.2440049-.1039581.4367162-.3005925.5357364-.5466427.0990202-.2460501.0962373-.5213591-.0077364-.7653573z" fill="#ecf0f1"/></g></g></svg>