<svg id="flat" height="512" viewBox="0 0 512 512" width="512" xmlns="http://www.w3.org/2000/svg"><path d="m440 157.25v298.75a32.004 32.004 0 0 1 -32 32h-304a32.004 32.004 0 0 1 -32-32v-400a32.004 32.004 0 0 1 32-32h202.75a32.06422 32.06422 0 0 1 22.62 9.37l101.26 101.26a32.06422 32.06422 0 0 1 9.37 22.62z" fill="#548aff"/><path d="m437.12 144h-85.12a32.004 32.004 0 0 1 -32-32v-85.12a31.82536 31.82536 0 0 1 9.37 6.49l101.26 101.26a31.82536 31.82536 0 0 1 6.49 9.37z" fill="#7dafff"/><g fill="#3b57c4"><path d="m216 64h64v16h-64z"/><path d="m168 64h24v16h-24z"/><path d="m256 112h24v16h-24z"/><path d="m120 112h112v16h-112z"/><path d="m312 376h80v16h-80z"/><path d="m208 376h80v16h-80z"/><path d="m120 376h64v16h-64z"/><path d="m368 424h24v16h-24z"/><path d="m280 424h64v16h-64z"/><path d="m120 424h136v16h-136z"/></g><circle cx="256" cy="256" fill="#f6bb00" r="88"/><path d="m255.58936 242.53027 8-24a7.99943 7.99943 0 0 0 -3.15187-9.18652l-24-16-8.875 13.3125 8.52754 5.68506a48.01079 48.01079 0 0 0 -24.093 62.86181l14.66211-6.40624a32.01821 32.01821 0 0 1 17.47815-42.50782l-3.72669 11.18067z" fill="#de9400"/><path d="m304 256a47.6639 47.6639 0 0 0 -3.998-19.20312l-14.66113 6.40624a32.01821 32.01821 0 0 1 -17.47815 42.50782l3.72669-11.18067-15.17872-5.06054-8 24a7.99945 7.99945 0 0 0 3.15185 9.18652l24 16 8.875-13.3125-8.52754-5.68506a48.05477 48.05477 0 0 0 28.09-43.65869z" fill="#de9400"/><path d="m72 248h72v16h-72z" fill="#486be0"/><path d="m368 248h72v16h-72z" fill="#486be0"/></svg>