<svg id="Flat" height="512" viewBox="0 0 512 512" width="512" xmlns="http://www.w3.org/2000/svg"><rect fill="#3086cd" height="200" rx="64" width="208" x="280" y="112"/><path d="m344 80h80v32h-80z" fill="#2a70ab"/><path d="m344 80-8-56 32 24 16-24 16 24 32-24-8 56z" fill="#3086cd"/><rect fill="#fb685b" height="32" rx="2" width="464" x="24" y="344"/><path d="m24 24h208v288h-208z" fill="#4db7e5"/><g fill="#2d7dbf"><path d="m152 56h48v32h-48z"/><path d="m64 112h32v16h-32z"/><path d="m112 112h96v16h-96z"/><path d="m48 144h72v16h-72z"/><path d="m136 144h72v16h-72z"/><path d="m80 176h32v16h-32z"/><path d="m128 176h32v16h-32z"/><path d="m176 176h32v16h-32z"/></g><path d="m228.364 376h90.909l-18.909-32h-54.546z" fill="#f35244"/><path d="m160 472h200l-104-176z" fill="#db4132"/><path d="m320 280h64v32h-64z" fill="#f18d00"/><path d="m320 248h64v32h-64z" fill="#fdb62f"/><path d="m384 216h64v32h-64z" fill="#fdb62f"/><path d="m384 248h64v32h-64z" fill="#f18d00"/><path d="m384 280h64v32h-64z" fill="#fdb62f"/><path d="m360 280h24v32h-24z" fill="#f08000"/><path d="m360 248h24v32h-24z" fill="#fca713"/><path d="m424 248h24v32h-24z" fill="#f08000"/><path d="m424 216h24v32h-24z" fill="#fca713"/><path d="m424 280h24v32h-24z" fill="#fca713"/><path d="m24 216h144v96h-144z" fill="#95cb37"/><path d="m24 240h144v16h-144z" fill="#448703"/><path d="m64 272h32v16h-32z" fill="#448703"/><path d="m112 272h32v16h-32z" fill="#448703"/><path d="m256 424a24 24 0 1 1 24-24 24.02625 24.02625 0 0 1 -24 24zm0-32a8 8 0 1 0 8 8 8.00791 8.00791 0 0 0 -8-8z" fill="#fb685b"/></svg>