<svg height="512pt" viewBox="0 -57 512 511" width="512pt" xmlns="http://www.w3.org/2000/svg"><path d="m506.003906 351.953125h-500.007812c-3.3125 0-5.996094 2.683594-5.996094 5.996094v12.457031c0 15.304688 12.519531 27.820312 27.820312 27.820312h456.359376c15.300781 0 27.820312-12.515624 27.820312-27.820312v-12.457031c0-3.3125-2.683594-5.996094-5.996094-5.996094zm0 0" fill="#e4eaf8"/><path d="m484.179688 375.089844h-456.359376c-12.753906 0-23.570312-8.699219-26.816406-20.457032-.632812.949219-1.003906 2.089844-1.003906 3.316407v12.457031c0 15.304688 12.519531 27.820312 27.820312 27.820312h456.359376c15.300781 0 27.820312-12.515624 27.820312-27.820312v-12.457031c0-1.226563-.371094-2.367188-1.003906-3.316407-3.246094 11.757813-14.0625 20.457032-26.816406 20.457032zm0 0" fill="#c7d2e5"/><path d="m450.144531.5h-380.117187c-22.582032 0-41.054688 18.476562-41.054688 41.058594v269.335937c0 22.582031 18.472656 41.058594 41.054688 41.058594h380.117187c22.582031 0 41.058594-18.476563 41.058594-41.058594v-269.335937c0-22.582032-18.476563-41.058594-41.058594-41.058594zm0 0" fill="#576574"/><path d="m59.878906 310.894531v-269.335937c0-22.582032 18.476563-41.058594 41.058594-41.058594h-30.910156c-22.582032 0-41.054688 18.476562-41.054688 41.058594v269.335937c0 22.582031 18.472656 41.058594 41.054688 41.058594h30.910156c-22.582031 0-41.058594-18.476563-41.058594-41.058594zm0 0" fill="#3e4b5a"/><path d="m66.378906 75.507812v232.433594c0 3.558594 2.886719 6.441406 6.441406 6.441406h374.53125c3.558594 0 6.445313-2.882812 6.445313-6.441406v-232.433594zm0 0" fill="#e4eaf8"/><path d="m96.972656 307.941406v-232.433594h-30.59375v232.433594c0 3.558594 2.886719 6.441406 6.441406 6.441406h30.59375c-3.558593 0-6.441406-2.882812-6.441406-6.441406zm0 0" fill="#c7d2e5"/><path d="m447.351562 37.667969h-374.53125c-3.554687 0-6.441406 2.882812-6.441406 6.441406v33.457031h387.417969v-33.457031c0-3.558594-2.886719-6.441406-6.445313-6.441406zm0 0" fill="#54a0ff"/><path d="m115.074219 37.667969h-42.253907c-3.554687 0-6.441406 2.882812-6.441406 6.441406v33.457031h48.695313zm0 0" fill="#ff6b6b"/><path d="m103.214844 37.667969h-30.394532c-3.554687 0-6.441406 2.882812-6.441406 6.441406v33.457031h30.394532v-33.457031c0-3.558594 2.882812-6.441406 6.441406-6.441406zm0 0" fill="#ee5253"/><path d="m181.320312 351.953125v10.773437c0 6.800782 5.5625 12.363282 12.363282 12.363282h124.632812c6.800782 0 12.363282-5.5625 12.363282-12.363282v-10.773437zm0 0" fill="#c7d2e5"/><path d="m212.226562 362.726562v-10.773437h-30.90625v10.773437c0 6.800782 5.5625 12.363282 12.363282 12.363282h30.90625c-6.800782 0-12.363282-5.5625-12.363282-12.363282zm0 0" fill="#bac7db"/><path d="m179.601562 171.601562h-70.996093c-3.007813 0-5.449219 2.4375-5.449219 5.449219v97.359375c0 3.007813 2.441406 5.449219 5.449219 5.449219h70.996093c3.007813 0 5.449219-2.441406 5.449219-5.449219v-97.359375c0-3.011719-2.441406-5.449219-5.449219-5.449219zm0 0" fill="#feca57"/><path d="m295.585938 171.601562h-70.996094c-3.011719 0-5.449219 2.4375-5.449219 5.449219v97.359375c0 3.007813 2.4375 5.449219 5.449219 5.449219h70.996094c3.007812 0 5.449218-2.441406 5.449218-5.449219v-97.359375c0-3.011719-2.441406-5.449219-5.449218-5.449219zm0 0" fill="#1dd1a1"/><path d="m411.570312 171.601562h-70.996093c-3.011719 0-5.449219 2.4375-5.449219 5.449219v97.359375c0 3.007813 2.4375 5.449219 5.449219 5.449219h70.996093c3.007813 0 5.449219-2.441406 5.449219-5.449219v-97.359375c0-3.011719-2.441406-5.449219-5.449219-5.449219zm0 0" fill="#ff6b6b"/><path d="m134.066406 274.410156v-97.359375c0-3.011719 2.4375-5.449219 5.449219-5.449219h-30.910156c-3.007813 0-5.449219 2.4375-5.449219 5.449219v97.359375c0 3.007813 2.441406 5.449219 5.449219 5.449219h30.910156c-3.011719 0-5.449219-2.441406-5.449219-5.449219zm0 0" fill="#f4b537"/><path d="m250.050781 274.410156v-97.359375c0-3.011719 2.4375-5.449219 5.445313-5.449219h-30.90625c-3.007813 0-5.449219 2.4375-5.449219 5.449219v97.359375c0 3.007813 2.4375 5.449219 5.449219 5.449219h30.90625c-3.007813 0-5.445313-2.441406-5.445313-5.449219zm0 0" fill="#15ba8b"/><path d="m366.03125 274.410156v-97.359375c0-3.011719 2.441406-5.449219 5.449219-5.449219h-30.90625c-3.007813 0-5.449219 2.4375-5.449219 5.449219v97.359375c0 3.007813 2.441406 5.449219 5.449219 5.449219h30.90625c-3.007813 0-5.449219-2.441406-5.449219-5.449219zm0 0" fill="#ee5253"/><path d="m412.28125 108.863281h-304.386719c-2.617187 0-4.738281 2.121094-4.738281 4.738281v21.214844c0 2.617188 2.121094 4.738282 4.738281 4.738282h304.386719c2.613281 0 4.738281-2.121094 4.738281-4.738282v-21.214844c0-2.617187-2.121093-4.738281-4.738281-4.738281zm0 0" fill="#54a0ff"/><path d="m134.066406 134.816406v-21.214844c0-2.617187 2.121094-4.738281 4.734375-4.738281h-30.90625c-2.617187 0-4.738281 2.121094-4.738281 4.738281v21.214844c0 2.617188 2.121094 4.738282 4.738281 4.738282h30.90625c-2.613281 0-4.734375-2.121094-4.734375-4.738282zm0 0" fill="#338def"/></svg>