<?xml version="1.0"?>
<svg xmlns="http://www.w3.org/2000/svg" xmlns:xlink="http://www.w3.org/1999/xlink" xmlns:svgjs="http://svgjs.com/svgjs" version="1.1" width="512" height="512" x="0" y="0" viewBox="0 0 512 512" style="enable-background:new 0 0 512 512" xml:space="preserve" class=""><g><path xmlns="http://www.w3.org/2000/svg" d="m232 136h208v184h-208z" fill="#fbbd03" data-original="#448703" style="" class=""/><path xmlns="http://www.w3.org/2000/svg" d="m232 136h208v120h-208z" fill="#eb2c2c" data-original="#95cb37" style="" class=""/><g xmlns="http://www.w3.org/2000/svg" fill="#69a709"><path d="m232 136h48a0 0 0 0 1 0 0 48 48 0 0 1 -48 48 0 0 0 0 1 0 0v-48a0 0 0 0 1 0 0z" fill="#c10505" data-original="#69a709" style="" class=""/><path d="m392 136h48a0 0 0 0 1 0 0 48 48 0 0 1 -48 48 0 0 0 0 1 0 0v-48a0 0 0 0 1 0 0z" transform="matrix(0 1 -1 0 576 -256)" fill="#c10505" data-original="#69a709" style="" class=""/><path d="m392 208h48a0 0 0 0 1 0 0 48 48 0 0 1 -48 48 0 0 0 0 1 0 0v-48a0 0 0 0 1 0 0z" transform="matrix(-1 0 0 -1 832 464)" fill="#c10505" data-original="#69a709" style="" class=""/><path d="m232 208h48a0 0 0 0 1 0 0 48 48 0 0 1 -48 48 0 0 0 0 1 0 0v-48a0 0 0 0 1 0 0z" transform="matrix(0 -1 1 0 24 488)" fill="#c10505" data-original="#69a709" style="" class=""/></g><path xmlns="http://www.w3.org/2000/svg" d="m411.3042 256a63.98738 63.98738 0 0 1 -59.3042 40h-120v24h208v-64z" fill="#ffef00" data-original="#276b02" style="" class=""/><path xmlns="http://www.w3.org/2000/svg" d="m312 136h48v120h-48z" fill="#fca713" data-original="#fca713" style="" class=""/><path xmlns="http://www.w3.org/2000/svg" d="m312 256h48v64h-48z" fill="#f98500" data-original="#f98500" style="" class=""/><path xmlns="http://www.w3.org/2000/svg" d="m216 104h80a64 64 0 0 1 64 64v120a32 32 0 0 1 -32 32h-144a32 32 0 0 1 -32-32v-120a64 64 0 0 1 64-64z" fill="#3086cd" data-original="#3086cd" style="" class=""/><path xmlns="http://www.w3.org/2000/svg" d="m216 72h80v32h-80z" fill="#2a70ab" data-original="#2a70ab" style="" class=""/><path xmlns="http://www.w3.org/2000/svg" d="m216 72-8-48 32 16 16-16 16 16 32-16-8 48z" fill="#3086cd" data-original="#3086cd" style="" class=""/><path xmlns="http://www.w3.org/2000/svg" d="m232 136h208v184h-208z" fill="#fbbd03" data-original="#448703" style="" class=""/><path xmlns="http://www.w3.org/2000/svg" d="m232 136h208v120h-208z" fill="#eb2c2c" data-original="#95cb37" style="" class=""/><path xmlns="http://www.w3.org/2000/svg" d="m232 136h48a0 0 0 0 1 0 0 48 48 0 0 1 -48 48 0 0 0 0 1 0 0v-48a0 0 0 0 1 0 0z" fill="#c10505" data-original="#69a709" style="" class=""/><path xmlns="http://www.w3.org/2000/svg" d="m392 136h48a0 0 0 0 1 0 0 48 48 0 0 1 -48 48 0 0 0 0 1 0 0v-48a0 0 0 0 1 0 0z" fill="#c10505" transform="matrix(0 1 -1 0 576 -256)" data-original="#69a709" style="" class=""/><path xmlns="http://www.w3.org/2000/svg" d="m392 208h48a0 0 0 0 1 0 0 48 48 0 0 1 -48 48 0 0 0 0 1 0 0v-48a0 0 0 0 1 0 0z" fill="#c10505" transform="matrix(-1 0 0 -1 832 464)" data-original="#69a709" style="" class=""/><path xmlns="http://www.w3.org/2000/svg" d="m232 208h48a0 0 0 0 1 0 0 48 48 0 0 1 -48 48 0 0 0 0 1 0 0v-48a0 0 0 0 1 0 0z" fill="#c10505" transform="matrix(0 -1 1 0 24 488)" data-original="#69a709" style="" class=""/><path xmlns="http://www.w3.org/2000/svg" d="m411.3042 256a63.98738 63.98738 0 0 1 -59.3042 40h-120v24h208v-64z" fill="#ffef00" data-original="#276b02" style="" class=""/><path xmlns="http://www.w3.org/2000/svg" d="m312 136h48v120h-48z" fill="#fca713" data-original="#fca713" style="" class=""/><path xmlns="http://www.w3.org/2000/svg" d="m312 256h48v64h-48z" fill="#f98500" data-original="#f98500" style="" class=""/><path xmlns="http://www.w3.org/2000/svg" d="m152 224h80v32h-80z" fill="#fdb62f" data-original="#fdb62f" style="" class=""/><path xmlns="http://www.w3.org/2000/svg" d="m72 224h80v32h-80z" fill="#f18d00" data-original="#f18d00" style="" class=""/><path xmlns="http://www.w3.org/2000/svg" d="m72 192h80v32h-80z" fill="#fdb62f" data-original="#fdb62f" style="" class=""/><path xmlns="http://www.w3.org/2000/svg" d="m152 256h80v32h-80z" fill="#f18d00" data-original="#f18d00" style="" class=""/><path xmlns="http://www.w3.org/2000/svg" d="m72 256h80v32h-80z" fill="#fdb62f" data-original="#fdb62f" style="" class=""/><path xmlns="http://www.w3.org/2000/svg" d="m152 288h80v32h-80z" fill="#fdb62f" data-original="#fdb62f" style="" class=""/><path xmlns="http://www.w3.org/2000/svg" d="m72 288h80v32h-80z" fill="#f18d00" data-original="#f18d00" style="" class=""/><path xmlns="http://www.w3.org/2000/svg" d="m120 288h32v32h-32z" fill="#f08000" data-original="#f08000" style="" class=""/><path xmlns="http://www.w3.org/2000/svg" d="m120 256h32v32h-32z" fill="#fca713" data-original="#fca713" style="" class=""/><path xmlns="http://www.w3.org/2000/svg" d="m120 224h32v32h-32z" fill="#f08000" data-original="#f08000" style="" class=""/><path xmlns="http://www.w3.org/2000/svg" d="m200 288h32v32h-32z" fill="#fca713" data-original="#fca713" style="" class=""/><path xmlns="http://www.w3.org/2000/svg" d="m200 256h32v32h-32z" fill="#f08000" data-original="#f08000" style="" class=""/><path xmlns="http://www.w3.org/2000/svg" d="m200 224h32v32h-32z" fill="#fca713" data-original="#fca713" style="" class=""/><path xmlns="http://www.w3.org/2000/svg" d="m120 192h32v32h-32z" fill="#fca713" data-original="#fca713" style="" class=""/><path xmlns="http://www.w3.org/2000/svg" d="m24 464h144v32h-144z" fill="#cb3a19" data-original="#3487cb" style="" class=""/><path xmlns="http://www.w3.org/2000/svg" d="m40 432h112v32h-112z" fill="#cd0303" data-original="#4db7e5" style="" class=""/><path xmlns="http://www.w3.org/2000/svg" d="m128 336-8-8v-48a24 24 0 0 0 -48 0v-128a24 24 0 0 0 -48 0v174.311a190.53218 190.53218 0 0 0 32 105.689h72a67.88207 67.88207 0 0 0 0-96z" fill="#ffdad2" data-original="#ffdad2" style="" class=""/><path xmlns="http://www.w3.org/2000/svg" d="m64 352a8.00039 8.00039 0 0 1 -8-8v-64a8 8 0 0 1 16 0v64a8.00039 8.00039 0 0 1 -8 8z" fill="#ff9f9b" data-original="#ff9f9b" style="" class=""/><path xmlns="http://www.w3.org/2000/svg" d="m344 464h144v32h-144z" fill="#cb3a19" data-original="#3487cb" style="" class=""/><path xmlns="http://www.w3.org/2000/svg" d="m360 432h112v32h-112z" fill="#cd0303" data-original="#4db7e5" style="" class=""/><path xmlns="http://www.w3.org/2000/svg" d="m464 128a23.99994 23.99994 0 0 0 -24 24v128a24 24 0 0 0 -48 0v48l-8 8a67.88207 67.88207 0 0 0 0 96h72a190.53218 190.53218 0 0 0 32-105.689v-174.311a23.99994 23.99994 0 0 0 -24-24z" fill="#ffdad2" data-original="#ffdad2" style="" class=""/><path xmlns="http://www.w3.org/2000/svg" d="m448 352a8.00039 8.00039 0 0 1 -8-8v-64a8 8 0 0 1 16 0v64a8.00039 8.00039 0 0 1 -8 8z" fill="#ff9f9b" data-original="#ff9f9b" style="" class=""/></g></svg>
