<?xml version="1.0"?>
<svg xmlns="http://www.w3.org/2000/svg" xmlns:xlink="http://www.w3.org/1999/xlink" xmlns:svgjs="http://svgjs.com/svgjs" version="1.1" width="512" height="512" x="0" y="0" viewBox="0 0 511.48 511.48" style="enable-background:new 0 0 512 512" xml:space="preserve" class=""><g><g xmlns="http://www.w3.org/2000/svg"><g><g><path d="m255.74 1.48c-98.131 0-158.574 55.347-158.741 55.441-3.787 17.481-10.374 42.85-10.374 61.465 0 140.833 118.763 254.972 259.596 254.972 60.017 0 115.159-27.944 158.719-62.639.178-1.087 5.8-23.477 5.8-54.239 0-140.833-114.167-255-255-255z" fill="#dfd757" data-original="#df6b57" style="" class=""/></g><path d="m346.199 366.159c-140.833 0-255-114.167-255-255 0-18.615 2.013-36.757 5.801-54.239-.006.005-.011.01-.017.014-58.646 46.721-96.243 118.738-96.243 199.546 0 51.485 15.258 99.407 41.5 139.49l137.283 103.925c24.067 7.528 49.668 11.585 76.217 11.585 32.852 0 64.364-6.247 93.348-17.66l136.198-126.152c8.669-17.878 15.323-36.954 19.654-56.949-43.56 34.695-98.725 55.44-158.741 55.44z" fill="#38da70" data-original="#da387d" style="" class=""/></g><path d="m420.701 256.722h-119.842v169.55c0 31.318 20.172 57.908 48.224 67.535 24.312-9.574 46.845-22.782 66.898-38.989l61.331-92.846v-48.64c0-31.264-25.346-56.61-56.611-56.61z" fill="#ff965a" data-original="#ff965a" style="" class=""/><path d="m51.317 408.937c10.939 14.644 23.422 28.065 37.197 40.039l81.598 3.181v-43.221h-118.795z" fill="#c9c2c2" data-original="#f9f6f6" style="" class=""/><path d="m179.524 499.89v-50.907h-91.017c26.194 22.775 57.08 40.292 91.017 50.907z" fill="#f4dd45" data-original="#f4dd45" style="" class=""/><path d="m42.254 225.871v170.089c3.188 4.869 6.534 9.625 10.038 14.255h95.012c39.435 0 71.404-31.969 71.404-71.404v-169.55h-119.843c-31.266 0-56.611 25.345-56.611 56.61z" fill="#ff965a" data-original="#ff965a" style="" class=""/><g><path d="m433.593 435.97h-55.898-152.422l-6.566-217.985 6.566-217.985h208.32v346.531z" fill="#c9c2c2" data-original="#f9f6f6" style="" class=""/></g><g><path d="m89.768 0h135.505v435.97h-135.505z" fill="#ffffff" data-original="#efe7e4" style="" class=""/></g><g><path d="m221.603 142.902h142.248v25h-142.248z" fill="#ffffff" data-original="#efe7e4" style="" class=""/></g><g><path d="m165.31 142.902h59.963v25h-59.963z" fill="#e2dfe2" data-original="#e2dfe2" style="" class=""/></g><g><path d="m221.603 89.898h142.248v25h-142.248z" fill="#ffffff" data-original="#efe7e4" style="" class=""/></g><g><path d="m165.31 89.898h59.963v25h-59.963z" fill="#e2dfe2" data-original="#e2dfe2" style="" class=""/></g><g><path d="m222.139 196.927h47.871v131.824h-47.871z" fill="#f9ef63" data-original="#f9ef63" style=""/></g><g><path d="m165.31 196.927h59.963v131.824h-59.963z" fill="#f4dd45" data-original="#f4dd45" style="" class=""/></g><g><path d="m304.298 200.957h56.328v25h-56.328z" fill="#ffffff" data-original="#efe7e4" style="" class=""/></g><g><path d="m304.298 250.339h56.328v25h-56.328z" fill="#ffffff" data-original="#efe7e4" style="" class=""/></g><g><path d="m304.298 299.72h56.328v25h-56.328z" fill="#ffffff" data-original="#efe7e4" style="" class=""/></g><g><path d="m150.997 189.065c-9.873-9.873-25.88-9.873-35.752 0-24.141 25.526-7.352 7.774-71.77 75.888l.001.024c-9.953 12.183-16.254 30.127-16.254 50.154 0 36.701 21.131 66.452 47.198 66.452s47.198-29.752 47.198-66.452c0-11.263-1.993-21.866-5.508-31.158-3.825-10.112-1.65-21.507 5.879-29.265l29.008-29.891c9.873-9.872 9.873-25.879 0-35.752z" fill="#ffbe82" data-original="#ffbe82" style="" class=""/></g><g><path d="m150.997 189.065c-9.873-9.873-25.88-9.873-35.752 0-24.141 25.526-7.352 7.774-71.77 75.888l.001.024c-9.953 12.183-16.254 30.127-16.254 50.154 0 36.701 21.131 66.452 47.198 66.452s47.198-29.752 47.198-66.452c0-11.263-1.993-21.866-5.508-31.158-3.825-10.112-1.65-21.507 5.879-29.265l29.008-29.891c9.873-9.872 9.873-25.879 0-35.752z" fill="#ffbe82" data-original="#ffbe82" style="" class=""/></g><path d="m404.321 276.527c-9.873-9.873-25.88-9.873-35.752 0-9.873 9.873-9.873 25.879 0 35.752l29.008 29.891c7.529 7.758 9.704 19.153 5.879 29.265-3.514 9.292-5.508 19.895-5.508 31.158 0 21.198 7.058 40.063 18.037 52.231 28.989-23.43 52.794-53.123 69.297-87.158-2.512-5.704-5.611-10.843-9.192-15.227l.001-.024c-64.418-68.114-47.629-50.362-71.77-75.888z" fill="#ffbe82" data-original="#ffbe82" style="" class=""/></g></g></svg>
