<svg width="512" height="512" viewBox="0 0 512 512" fill="none" xmlns="http://www.w3.org/2000/svg">
<g clip-path="url(#clip0_1973_14517)">
<path d="M256 512.001C397.386 512.001 512.001 397.386 512.001 256C512.001 114.615 397.386 0 256 0C114.615 0 0 114.615 0 256C0 397.386 114.615 512.001 256 512.001Z" fill="#4F5565"/>
<path d="M254.636 348.72C254.636 251.229 224.639 157.828 209.98 62.3818C276.792 43.9743 345.991 43.9743 412.803 62.3818C397.805 157.828 368.148 251.229 368.148 348.72C330.312 348.72 292.474 348.72 254.636 348.72Z" fill="#71D456"/>
<path d="M263.84 307.474C259.75 237.934 246.455 169.418 234.866 99.197C252.251 96.4696 265.203 83.5169 263.84 68.8593C295.883 65.1094 327.244 65.1094 359.286 68.8593C357.923 83.5169 370.535 96.4706 388.261 99.197C376.671 169.418 363.377 237.935 359.286 307.474C348.378 307.474 339.515 318.381 339.174 332.358C320.767 332.358 302.359 332.358 283.952 332.358C283.612 318.722 274.408 307.474 263.84 307.474Z" fill="#FCFCFD"/>
<path d="M311.222 252.932C288.383 252.932 266.908 230.774 262.818 203.163C258.727 175.552 280.884 150.327 311.222 149.986C341.56 149.986 363.717 175.552 359.627 203.163C355.536 230.774 334.061 252.932 311.222 252.932Z" fill="#71D456"/>
<path d="M311.222 117.262C303.723 117.262 297.246 111.808 297.246 104.99C296.905 98.1727 303.382 92.377 311.222 92.377C319.404 92.377 325.539 98.1717 325.198 104.99C325.198 111.808 318.722 117.262 311.222 117.262Z" fill="#71D456"/>
<path d="M311.222 308.153C306.109 308.153 302.019 303.04 302.019 296.222C302.019 289.746 306.109 284.291 311.222 284.291C316.335 284.291 320.426 289.745 320.426 296.222C320.426 302.7 316.336 308.153 311.222 308.153Z" fill="#71D456"/>
<path d="M297.929 222.936C308.155 222.936 316.336 213.391 316.677 201.801C316.677 196.688 320.768 192.938 325.199 192.938C329.972 192.938 333.722 197.028 333.381 202.142C333.381 204.528 332.018 206.914 330.313 208.618C327.926 211.005 327.585 214.753 329.631 217.14C331.676 219.526 335.085 219.867 337.131 217.481C339.858 215.094 341.903 212.027 342.925 208.277C344.289 208.277 345.653 208.277 347.016 208.277C350.084 208.277 352.811 205.89 353.152 202.482C353.492 199.073 351.107 196.347 348.038 196.347C346.675 196.347 345.311 196.347 343.948 196.347C342.244 187.825 334.744 181.008 325.199 180.667C313.61 180.326 304.747 190.211 305.088 201.802C305.088 206.915 301.679 210.665 296.906 211.006C292.475 211.006 288.384 207.256 288.044 202.143C288.044 199.756 288.725 197.37 290.429 195.666C292.474 193.28 292.474 189.531 290.088 187.144C287.702 184.757 283.953 184.757 281.907 187.144C280.203 189.53 278.839 192.939 277.816 196.348C276.453 196.348 275.089 196.348 273.726 196.348C270.657 196.348 268.272 199.416 268.613 202.483C268.953 205.892 271.681 208.278 274.748 208.278C276.111 208.278 277.476 208.278 278.498 208.278C282.248 216.799 289.748 222.936 297.929 222.936Z" fill="#FCFCFD"/>
<path d="M414.51 334.061C414.51 319.744 402.919 308.153 388.602 308.153H384.512C399.169 308.153 410.76 296.222 410.419 281.564C410.078 267.588 397.806 256.681 383.489 256.681H246.797L242.025 227.365L173.508 300.655H125.444V437.347H143.511C154.759 437.347 166.009 441.097 175.213 447.573C189.189 457.799 205.892 463.253 222.935 463.253H379.399C393.715 463.253 405.987 452.345 406.328 438.369C406.669 423.712 395.08 411.78 380.421 411.78H383.489C397.806 411.78 410.078 400.873 410.419 386.897C410.76 372.239 399.17 360.308 384.512 360.308H388.602C402.919 359.627 414.51 348.037 414.51 334.061Z" fill="#F7CFA2"/>
<path d="M105.673 463.254H132.262V296.223H3.06836C13.9762 364.74 52.1545 424.053 105.673 463.254Z" fill="#6EB1E1"/>
</g>
<defs>
<clipPath id="clip0_1973_14517">
<rect width="512" height="512" fill="white"/>
</clipPath>
</defs>
</svg>
