<svg id="Layer_1" enable-background="new 0 0 512 512" height="512" viewBox="0 0 512 512" width="512" xmlns="http://www.w3.org/2000/svg"><g><g><path d="m326.627 238.627-38.627-38.627h-96v176c0 17.673 14.327 32 32 32v16h112v-16-146.745c0-8.487-3.371-16.627-9.373-22.628z" fill="#f0915a"/></g><g><g><path d="m480 64h-448c-8.837 0-16 7.163-16 16v240c0 8.837 7.163 16 16 16h448c8.837 0 16-7.163 16-16v-240c0-8.837-7.163-16-16-16z" fill="#46508c"/></g><g><path d="m16 96h480v208h-480z" fill="#5f78be"/></g><g><g><path d="m272 176h-112c-8.837 0-16-7.163-16-16 0-8.837 7.163-16 16-16h112c8.837 0 16 7.163 16 16 0 8.837-7.163 16-16 16z" fill="#73cddc"/></g><g><path d="m448 176h-112c-8.837 0-16-7.163-16-16 0-8.837 7.163-16 16-16h112c8.837 0 16 7.163 16 16 0 8.837-7.163 16-16 16z" fill="#73cddc"/></g><g><path d="m449 256h-290c-8.284 0-15-6.716-15-15v-18c0-8.284 6.716-15 15-15h290c8.284 0 15 6.716 15 15v18c0 8.284-6.716 15-15 15z" fill="#46508c"/></g></g><path d="m104 192c4.418 0 8-3.582 8-8v-5.404c0-13.789-10.549-25.158-24-26.468v-8.128c0-4.418-3.582-8-8-8s-8 3.582-8 8v8.128c-13.451 1.31-24 12.679-24 26.468 0 11.466 7.309 21.605 18.186 25.231l22.568 7.522c4.334 1.445 7.246 5.485 7.246 10.053 0 5.845-4.753 10.598-10.596 10.598h-10.808c-5.843 0-10.596-4.753-10.596-10.596v-5.404c0-4.418-3.582-8-8-8s-8 3.582-8 8v5.404c0 13.789 10.549 25.158 24 26.468v8.128c0 4.418 3.582 8 8 8s8-3.582 8-8v-8.128c13.451-1.31 24-12.679 24-26.468 0-11.466-7.309-21.605-18.186-25.231l-22.568-7.522c-4.334-1.446-7.246-5.486-7.246-10.055 0-5.843 4.753-10.596 10.596-10.596h10.808c5.843 0 10.596 4.753 10.596 10.596v5.404c0 4.418 3.582 8 8 8z" fill="#73cddc"/></g><g><path d="m336 424h-112c-8.837 0-16 7.163-16 16v8h144v-8c0-8.837-7.163-16-16-16z" fill="#5f78be"/></g><g><path d="m336 424h-56v24h72v-8c0-8.837-7.163-16-16-16z" fill="#46508c"/></g><g><path d="m291.313 259.313c-6.248-6.248-16.379-6.248-22.627 0l-.726.726c-12.496 12.497-12.496 32.759.001 45.256l12.039 12.038v34.667c0 30.928 25.072 56 56 56v-97.373c0-4.243-1.686-8.313-4.686-11.314z" fill="#fab991"/></g><g><path d="m293.333 261.333-2.02 2.02c-6.248 6.248-6.248 16.379 0 22.627l1.696 1.696c3.124 3.124 8.19 3.124 11.314 0l7.677-7.676z" fill="#f0915a"/></g></g></svg>