<svg id="Flat" height="512" viewBox="0 0 512 512" width="512" xmlns="http://www.w3.org/2000/svg"><path d="m24 56h464v360h-464z" fill="#fdc55b"/><path d="m24 56h464v16h-464z" fill="#fca713"/><path d="m235.46338 396.65869-11.46338-28.65869-32 8-24-32-26.41064 13.20508a32.001 32.001 0 0 0 -17.14112 34.519l-12.44824 64.27592 8 32h88l27.82568-68.521a31.99681 31.99681 0 0 0 -.3623-22.82031z" fill="#3487cb"/><path d="m240 304v-16h-48l-24 56 24 32 32-8-8-8h16v-24h16z" fill="#ffdad2"/><path d="m235.46338 396.65869-11.46338-28.65869-32 8-8 112h24l27.82568-68.521a31.99681 31.99681 0 0 0 -.3623-22.82031z" fill="#4db7e5"/><path d="m264 296h-75.42857a16 16 0 0 1 16-16h59.42857z" fill="#6b402a"/><path d="m188.6875 344a7.99708 7.99708 0 0 0 0 11.3125l17.2124 17.2124 18.1001-4.5249-24-24a7.99708 7.99708 0 0 0 -11.3125 0z" fill="#ff9f9b"/><path d="m163.46338 396.65869-11.46338-28.65869-32 8-24-32-26.41064 13.20508a32.00093 32.00093 0 0 0 -17.14111 34.519l-12.44825 64.27592 8 32h88l27.82569-68.521a31.99681 31.99681 0 0 0 -.36231-22.82031z" fill="#3487cb"/><path d="m168 304v-16h-48l-24 56 24 32 32-8-8-8h16v-24h16z" fill="#ffdad2"/><path d="m163.46338 396.65869-11.46338-28.65869-32 8-8 112h24l27.82569-68.521a31.99681 31.99681 0 0 0 -.36231-22.82031z" fill="#4db7e5"/><path d="m192 296h-75.42857a16 16 0 0 1 16-16h59.42857z" fill="#6b402a"/><path d="m116.6875 344a7.99708 7.99708 0 0 0 0 11.3125l17.21241 17.2124 18.10009-4.5249-24-24a7.99708 7.99708 0 0 0 -11.3125 0z" fill="#ff9f9b"/><path d="m91.46338 396.65869-11.46338-28.65869-32 8-24-32v144h40l27.82568-68.521a31.99681 31.99681 0 0 0 -.3623-22.82031z" fill="#3487cb"/><path d="m96 304v-16h-48l-24 56 24 32 32-8-8-8h16v-24h16z" fill="#ffdad2"/><path d="m91.46339 396.65869-11.46339-28.65869-32 8-8 112h24l27.82568-68.521a31.99681 31.99681 0 0 0 -.36229-22.82031z" fill="#4db7e5"/><path d="m120 296h-75.42856a16 16 0 0 1 16-16h59.42856z" fill="#6b402a"/><path d="m44.68751 344a7.99708 7.99708 0 0 0 0 11.3125l17.2124 17.2124 18.10009-4.5249-24-24a7.99708 7.99708 0 0 0 -11.31249 0z" fill="#ff9f9b"/><path d="m280 360h104v56h-104z" fill="#fd7b2f"/><path d="m280 416 8 80h72v-80z" fill="#f46b27"/><g fill="#f18d00"><path d="m96 160h-16a16 16 0 0 1 0-32h16a16.01582 16.01582 0 0 1 16 16h16a32.03667 32.03667 0 0 0 -32-32v-16h-16v16a32 32 0 0 0 0 64h16a16 16 0 0 1 0 32h-16a16.01582 16.01582 0 0 1 -16-16h-16a32.03667 32.03667 0 0 0 32 32v16h16v-16a32 32 0 0 0 0-64z"/><path d="m160 96h304v16h-304z"/><path d="m144 144h104v16h-104z"/><path d="m264 144h80v16h-80z"/><path d="m144 192h112v16h-112z"/><path d="m144 240h96v16h-96z"/><path d="m24 24h464v32h-464z"/></g><path d="m328 256h-16v-40a8 8 0 0 1 8-8 8 8 0 0 1 8 8z" fill="#ffdad2"/><path d="m432 160h-48v16l-8 32h16v24h16l-8 8 32 8 24-32z" fill="#ffdad2"/><path d="m276.71448 227.28552a17.05956 17.05956 0 0 0 .65063 24.74314l49.79276 44.81347 24.84213-24.84213-51.98879-45.49017a17.05955 17.05955 0 0 0 -23.29673.77569z" fill="#ffdad2"/><path d="m352 272-29.867-26.133-24.449 24.449 46.316 41.684 47.771-10.631 8.229-61.369z" fill="#3487cb"/><path d="m483.46259 349.53285-3.46259 18.46715h-64l-4.90511-13.489-22.92062-63.03171a32 32 0 0 1 .36214-22.82027l11.46359-28.65902 32 8 24-32 32 24z" fill="#4db7e5"/><path d="m435.42857 168h-75.42857v-16h59.42859a16 16 0 0 1 16 16z" fill="#6b402a"/><path d="m320.35986 376.71973a18.11819 18.11819 0 0 0 23.3426 8.5505l49.31243-21.13423-15.20736-34.50873-48.83484 22.53916a18.11819 18.11819 0 0 0 -8.61283 24.5533z" fill="#ffdad2"/><path d="m435.3125 227.3125a7.99915 7.99915 0 0 0 -11.3125-11.3125l-23.60937 23.60937c-.12354.12354-.16456.28956-.27833.41895l17.9878 4.49658z" fill="#ff9f9b"/><path d="m488 496v-118l-8-10h-64v128z" fill="#3487cb"/><path d="m464 496v-64a8 8 0 0 0 -16 0v64z" fill="#2d7dbf"/><path d="m482.41064 229.20508-26.41064-13.20508-24 32v14.20752a98.99885 98.99885 0 0 0 3.5835 26.27393l-19.5835 23.51855-65 30 16.5293 33.05859 72.4707-31.05859 16.498-16.49854a101.94942 101.94942 0 0 0 31.502 24.48438v-119.11475a31.80124 31.80124 0 0 0 -5.58936-3.66601z" fill="#3487cb"/><path d="m469.60889 314.39111-29.60889 29.60889-28.31464 12.13477 4.31464 11.86523h8.61646l24.51831-10.50781 31.78759-31.7876a7.99983 7.99983 0 0 0 -11.31347-11.31348z" fill="#47a2d4"/><path d="m454.97119 252.69385a8.00191 8.00191 0 0 0 -11.26709 1.02881l-37.68848 45.26367-12.93981 5.97217 5.48706 15.08935 17.43713-8.04785 40-48.03906a8.00059 8.00059 0 0 0 -1.02881-11.26709z" fill="#47a2d4"/><path d="m443.70313 253.72656-11.51221 13.82569a98.949 98.949 0 0 0 3.39209 20.92822l20.41699-24.51953a7.99931 7.99931 0 1 0 -12.29687-10.23438z" fill="#2d7dbf"/><path d="m469.69141 314.30859-13.19287 13.19287a101.52083 101.52083 0 0 0 11.40527 11.21973l13.1001-13.1001a7.99915 7.99915 0 0 0 -11.3125-11.3125z" fill="#2d7dbf"/></svg>