<svg id="Flat" height="512" viewBox="0 0 512 512" width="512" xmlns="http://www.w3.org/2000/svg"><path d="m168 168h48v208h-48z" fill="#d4531c"/><path d="m120 232h48v144h-48z" fill="#ec7e53"/><path d="m216 128h48v248h-48z" fill="#ec7e53"/><path d="m264 192h48v184h-48z" fill="#d4531c"/><path d="m312 24h48v352h-48z" fill="#ec7e53"/><path d="m448 160v-72l-24-24-24 24v72l24-24z" fill="#ba4100"/><path d="m24 264h48v112h-48z" fill="#ec7e53"/><path d="m24 376h416v32h-416z" fill="#ba4100"/><path d="m72 200h48v176h-48z" fill="#d4531c"/><path d="m488 408v-32h-17.61279a79.51716 79.51716 0 0 0 -11.68994-28.07227l12.498-12.498-22.625-22.625-12.498 12.498a79.51716 79.51716 0 0 0 -28.07227-11.68994v-17.61279h-32v17.61279a78.61859 78.61859 0 0 0 -10.83887 3.03239 80.14785 80.14785 0 0 0 -17.2334 8.65755l-12.498-12.498-22.625 22.625 12.498 12.498a80.87916 80.87916 0 0 0 -4.21529 7.12154 79.066 79.066 0 0 0 -7.47465 20.95073h-17.61279v32h17.61279a79.19428 79.19428 0 0 0 8.66814 23.14238q1.42452 2.52206 3.0218 4.92989l-12.498 12.498 22.625 22.625 12.498-12.498a79.51716 79.51716 0 0 0 28.07227 11.68994v17.61279h32v-17.61279a79.51716 79.51716 0 0 0 28.07227-11.68994l12.498 12.498 22.625-22.625-12.498-12.498a79.51716 79.51716 0 0 0 11.68994-28.07227z" fill="#95cb37"/><path d="m415.17969 408.08594a23.24137 23.24137 0 0 0 -10.25781-17.08594l-16.96875-11.3125a7.29932 7.29932 0 0 1 -1.10938-11.21875 7.29924 7.29924 0 0 1 10.3125 0l5.1875 5.1875 11.3125-11.3125-5.1875-5.1875a23.038 23.038 0 0 0 -8.46875-5.33398v-15.82227h-16v15.82227a23.2321 23.2321 0 0 0 -4.92187 41.17773l16.96875 11.3125a7.29932 7.29932 0 0 1 1.10937 11.21875 7.29924 7.29924 0 0 1 -10.3125 0l-5.1875-5.1875-11.3125 11.3125 5.1875 5.1875a23.05708 23.05708 0 0 0 8.46875 5.33545v15.8208h16v-15.8208a23.07374 23.07374 0 0 0 15.17969-24.09326z" fill="#448703"/><g fill="#ba4100"><path d="m429.65625 178.34375a7.99708 7.99708 0 0 0 -11.3125 0l-24 24 11.3125 11.3125 18.34375-18.34375 18.34375 18.34375 11.3125-11.3125z"/><path d="m418.34375 226.34375-24 24 11.3125 11.3125 18.34375-18.34375 18.34375 18.34375 11.3125-11.3125-24-24a7.99708 7.99708 0 0 0 -11.3125 0z"/></g></svg>