<svg id="Flat" height="512" viewBox="0 0 512 512" width="512" xmlns="http://www.w3.org/2000/svg"><path d="m64 24h208v416h-208z" fill="#2d7dbf"/><g fill="#4db7e5"><path d="m96 56h56v32h-56z"/><path d="m184 56h56v32h-56z"/><path d="m96 120h56v32h-56z"/><path d="m184 120h56v32h-56z"/><path d="m96 184h56v32h-56z"/><path d="m96 248h56v32h-56z"/><path d="m120 336h32v104h-32z"/></g><path d="m152 152h176v288h-176z" fill="#348fd9"/><path d="m184 184h40v32h-40z" fill="#4db7e5"/><path d="m256 184h40v32h-40z" fill="#4db7e5"/><path d="m184 248h40v32h-40z" fill="#4db7e5"/><path d="m256 248h40v32h-40z" fill="#4db7e5"/><path d="m184 312h40v32h-40z" fill="#4db7e5"/><path d="m256 312h40v32h-40z" fill="#4db7e5"/><path d="m208 376h64v64h-64z" fill="#4db7e5"/><path d="m464 344h32v144h-32z" fill="#2a70ab"/><path d="m432 360h32v112h-32z" fill="#4db7e5"/><path d="m336 384-8 8h-48a24 24 0 0 0 0 48h-128a24 24 0 0 0 0 48h174.311a190.53218 190.53218 0 0 0 105.689-32v-72a67.88207 67.88207 0 0 0 -96 0z" fill="#ffdad2"/><path d="m352 448a8.00039 8.00039 0 0 1 -8 8h-64a8 8 0 0 1 0-16h64a8.00039 8.00039 0 0 1 8 8z" fill="#ff9f9b"/></svg>