<svg height="512" viewBox="0 0 64 64" width="512" xmlns="http://www.w3.org/2000/svg"><g id="Send_mail" data-name="Send mail"><path d="m9 38v6 6 11l21.049-16.999-21.049-17.001z" fill="#ff9811"/><path d="m39.951 44.001 21.049 16.999v-34z" fill="#ff9811"/><path d="m9 27 21.049 17 3.694 2.984a2 2 0 0 0 2.514 0l3.694-2.984 21.049-17z" fill="#ffb655"/><path d="m36.257 46.985a2 2 0 0 1 -2.514 0l-3.694-2.985-21.049 17h52l-21.049-17z" fill="#ffa733"/><path d="m47 12v5h-42v10h4 38v5l7.071-5h-.001.001l6.929-4.9z" fill="#d80027"/><path d="m57 30.231v18.769a7.978 7.978 0 0 1 -3.069 6.291l7.069 5.709v-34z" fill="#ee8700"/><path d="m9 57v4l4.953-4z" fill="#ee8700"/><path d="m49 57h-35.047l-4.953 4h52l-7.069-5.709a7.958 7.958 0 0 1 -4.931 1.709z" fill="#ff9811"/><g fill="#ff5023"><rect height="2" rx="1" width="10" x="2" y="37"/><rect height="2" rx="1" width="14" x="6" y="43"/><rect height="2" rx="1" width="14" x="2" y="49"/></g></g></svg>