<svg id="Flat" height="512" viewBox="0 0 512 512" width="512" xmlns="http://www.w3.org/2000/svg"><path d="m184 64h-30.55728a40 40 0 0 0 -17.88854 4.22291l-39.55418 19.77709v40l4.12534 6.188a40 40 0 0 0 33.28201 17.812h2.59265z" fill="#ff9f9b"/><path d="m296 72-72 136-96-48 72-136z" fill="#448703"/><path d="m200 24 64 32-72 136-64-32z" fill="#95cb37"/><g fill="#69a709"><path d="m235.43994 41.67969a31.015 31.015 0 0 0 -3.43994 14.32031 31.88478 31.88478 0 0 0 17.04 28.23975l14.96-28.23975z"/><path d="m200 56a31.80745 31.80745 0 0 0 28.56006-17.68018l-28.56006-14.31982-14.96 28.23975a31.43525 31.43525 0 0 0 14.96 3.76025z"/><path d="m163.43994 177.67969 28.56006 14.32031 14.96-28.24023a31.43479 31.43479 0 0 0 -14.96-3.75977 31.807 31.807 0 0 0 -28.56006 17.67969z"/><path d="m128 160 28.56006 14.31982a31.01151 31.01151 0 0 0 3.43994-14.31982 31.88553 31.88553 0 0 0 -17.04-28.24023z"/></g><path d="m151.548 115.521 64 32 18.312-34.591-64-32z" fill="#fca713"/><path d="m215.548 147.521 32 16 18.312-34.591-32-16z" fill="#f98500"/><path d="m195.04 115.12012a14.26114 14.26114 0 0 1 -2.48 8 14.51761 14.51761 0 0 1 -20.87988 3.59961l-19.68012-14.71973a22.69431 22.69431 0 0 1 -32 0l-24-24 39.52-19.76025a39.89725 39.89725 0 0 1 17.91994-4.23975h25.43994l-11.60009 21.83984 22.24021 17.76026a14.7812 14.7812 0 0 1 5.52 11.52002z" fill="#ffdad2"/><path d="m64 72h32v80h-32z" fill="#4db7e5" transform="matrix(-1 0 0 -1 160 224)"/><path d="m16 64h48v104h-48z" fill="#2a70ab" transform="matrix(-1 0 0 -1 80 232)"/><path d="m80 312h352v32h-352z" fill="#db4132"/><path d="m112 216h32v96h-32z" fill="#fb685b"/><path d="m176 240h32v72h-32z" fill="#f35244"/><path d="m240 240h32v72h-32z" fill="#fb685b"/><path d="m304 128h32v184h-32z" fill="#f35244"/><path d="m368 88h32v224h-32z" fill="#fb685b"/><path d="m328 344h30.55728a40 40 0 0 1 17.88854 4.22291l39.55418 19.77709v40l-4.12534 6.188a40 40 0 0 1 -33.28201 17.812h-2.59265z" fill="#ff9f9b"/><path d="m216 352 72 136 96-48-72-136z" fill="#448703"/><path d="m312 304-64 32 72 136 64-32z" fill="#95cb37"/><path d="m276.56006 321.67969a31.015 31.015 0 0 1 3.43994 14.32031 31.88478 31.88478 0 0 1 -17.04 28.23975l-14.96-28.23975z" fill="#69a709"/><path d="m312 336a31.80745 31.80745 0 0 1 -28.56006-17.68018l28.56006-14.31982 14.96 28.23975a31.43525 31.43525 0 0 1 -14.96 3.76025z" fill="#69a709"/><path d="m348.56006 457.67969-28.56006 14.32031-14.96-28.24023a31.43479 31.43479 0 0 1 14.96-3.75977 31.807 31.807 0 0 1 28.56006 17.67969z" fill="#69a709"/><path d="m384 440-28.56006 14.31982a31.01151 31.01151 0 0 1 -3.43994-14.31982 31.88553 31.88553 0 0 1 17.04-28.24023z" fill="#69a709"/><path d="m360.452 395.521-64 32-18.312-34.591 64-32z" fill="#fca713"/><path d="m296.452 427.521-32 16-18.312-34.591 32-16z" fill="#f98500"/><path d="m316.96 395.12012a14.26114 14.26114 0 0 0 2.48 8 14.51761 14.51761 0 0 0 20.87988 3.59961l19.68012-14.71973a22.69431 22.69431 0 0 0 32 0l24-24-39.52-19.76025a39.89725 39.89725 0 0 0 -17.91994-4.23975h-25.43994l11.60009 21.83984-22.24021 17.76026a14.7812 14.7812 0 0 0 -5.52 11.52002z" fill="#ffdad2"/><path d="m416 352h32v80h-32z" fill="#4db7e5"/><path d="m448 344h48v104h-48z" fill="#2a70ab"/></svg>