<svg id="Capa_1" enable-background="new 0 0 512 512" height="512" viewBox="0 0 512 512" width="512" xmlns="http://www.w3.org/2000/svg"><g><g><path d="m256 289.945c-141.387 0-244.056-122.44-223.123-159.547 43.912-77.84 127.378-130.398 223.123-130.398 95.772 0 179.258 52.588 223.16 130.464 20.91 37.092-81.773 159.481-223.16 159.481z" fill="#abecfe"/><path d="m512 256c0 26.051-3.891 51.191-11.129 74.871-5.031 16.469-11.672 32.231-19.75 47.109-8.25 15.2-147.391 51.328-225.121 51.328s-216.871-36.128-225.109-51.328c-3.289-6.031-6.332-12.21-9.121-18.531-14-31.629-21.77-66.629-21.77-103.449 0-46.219 12.25-89.57 33.68-127 44.121 77.07 127.16 129 222.32 129s178.211-51.93 222.32-129c21.43 37.43 33.68 80.781 33.68 127z" fill="#70c5e9"/><path d="m481.262 377.699c-7.16 13.223-15.434 25.742-24.723 37.43-8.437 10.633-17.719 20.57-27.719 29.723-9.3 8.516-19.231 16.354-29.715 23.436-7.581 5.121-22.717-2.115-30.846 2.186-13.109 6.935-19.626 24.726-33.96 29.327-7.678 2.465-15.514 4.576-23.489 6.316-17.658 3.853-237.215-70.382-241.737-75.209-4.748-5.069-9.291-10.333-13.612-15.779-9.289-11.688-17.563-24.207-24.723-37.43z" fill="#355dd7"/></g><g><path d="m311.564 181.542h-242.726v249.096c6.902 7.394 14.237 14.379 21.965 20.914 9.138 7.729 21.015 9.409 31.184 15.814 10.32 6.499 18.946 17.701 30.189 22.697 31.73 14.1 66.86 21.937 103.824 21.937 19.083 0 37.672-2.105 55.564-6.065z" fill="#edb0d3"/><path d="m311.564 181.542h-189.695v285.998s19.712 17.802 30.148 22.448c31.773 14.145 66.958 22.012 103.983 22.012 19.083 0 37.672-2.105 55.564-6.065z" fill="#e696c9"/><path d="m311.564 181.542h-121.363v321.907c20.998 5.568 43.048 8.551 65.799 8.551 19.083 0 37.672-2.105 55.564-6.065z" fill="#df7cb3"/><path d="m229.46 192.508h-79.397l-25.661 10.966h-33.631v248.048c18.428 15.588 39.084 28.62 61.431 38.544h137.429v-286.591h-33.631z" fill="#fbf5eb"/><path d="m289.631 203.475v286.592h-99.43v-297.559h39.259l26.54 10.967z" fill="#dce0ef"/><g><path d="m443.162 357.737h-21.933v-120.632c0-6.051-4.916-11.698-10.966-11.698h-21.933v-21.933h21.933c18.142 0 32.9 15.489 32.9 33.631v120.632z" fill="#efc142"/></g><path d="m223.1 270.005v21.933h-21.933v21.933h-21.933v-21.933h-21.933v-21.933h21.933v-21.933h21.933v21.933z" fill="#e696c9"/><g><path d="m146.335 406.144-29.687-29.686 15.507-15.508 14.18 14.18 36.112-36.113 15.507 15.508z" fill="#a8eb58"/></g><g><path d="m146.335 472.675-29.687-30.418 15.507-15.507 14.18 14.179 36.112-36.113 15.507 15.508z" fill="#a8eb58"/></g><g><path d="m223.1 357.737h43.866v21.933h-43.866z" fill="#b9c1df"/></g><g><path d="m223.1 423.537h43.866v21.933h-43.866z" fill="#b9c1df"/></g><path d="m333.497 313.871 10.967 11.186-10.967 10.747v164.242c23.597-7.486 45.717-18.29 65.799-31.879v-132.363l-10.967-10.747 10.967-11.186v-132.33h-65.799z" fill="#797e9d"/><path d="m348.838 313.871 8.41 11.186-8.41 10.747v158.832c17.881-6.961 34.79-15.866 50.459-26.469v-132.363l-8.41-10.747 8.41-11.186v-132.33h-50.459z" fill="#5f657a"/><path d="m366.397 487.032c11.464-5.487 22.457-11.799 32.9-18.865v-132.363l-10.967-10.747 10.967-11.186v-132.33h-32.9z" fill="#3e4151"/><path d="m333.497 313.871h65.799v21.933h-65.799z" fill="#fcf4c2"/><path d="m349.051 313.871h50.245v21.933h-50.245z" fill="#f7de82"/><path d="m366.397 313.871h32.9v21.933h-32.9z" fill="#efc142"/><path d="m223.1 270.005v21.933h-21.933v21.933h-10.966v-65.799h10.966v21.933z" fill="#df7cb3"/><path d="m256 159.609v43.866h-131.598v-43.866h34.874c4.605-12.721 16.668-21.933 30.925-21.933s26.32 9.212 30.925 21.933z" fill="#797e9d"/><path d="m221.126 159.608c-4.605-12.721-16.668-21.933-30.925-21.933s-26.32 9.211-30.925 21.933h-1.068v43.866h97.792v-43.866z" fill="#5f657a"/><path d="m256 159.609v43.866h-65.799v-65.799c14.257 0 26.32 9.212 30.925 21.933z" fill="#3e4151"/></g><g fill="#fff"><path d="m107.595 100.012h1.369c6.065 0 10.979 4.665 10.979 10.423v1.303h7.826v-1.303c0-5.758 4.918-10.423 10.98-10.423h1.371v-7.43h-1.371c-6.061 0-10.98-4.669-10.98-10.424v-1.298h-7.826v1.298c0 5.754-4.914 10.424-10.979 10.424h-1.369z"/><path d="m192.498 59.52h1.369c6.065 0 10.979 4.665 10.979 10.423v1.303h7.826v-1.303c0-5.758 4.918-10.423 10.98-10.423h1.371v-7.43h-1.371c-6.061 0-10.98-4.669-10.98-10.424v-1.298h-7.826v1.298c0 5.754-4.914 10.424-10.979 10.424h-1.369z"/><path d="m260.42 112.686h1.369c6.065 0 10.979 4.665 10.979 10.423v1.303h7.826v-1.303c0-5.758 4.918-10.423 10.98-10.423h1.371v-7.43h-1.371c-6.061 0-10.98-4.669-10.98-10.424v-1.298h-7.826v1.298c0 5.755-4.914 10.424-10.979 10.424h-1.369z"/><path d="m335.262 78.001h1.369c6.065 0 10.979 4.665 10.979 10.423v1.303h7.826v-1.303c0-5.758 4.918-10.423 10.98-10.423h1.371v-7.43h-1.371c-6.061 0-10.98-4.669-10.98-10.424v-1.298h-7.826v1.298c0 5.754-4.914 10.424-10.979 10.424h-1.369z"/><path d="m403.184 139.586h1.369c6.065 0 10.979 4.665 10.979 10.423v1.303h7.826v-1.303c0-5.758 4.918-10.423 10.98-10.423h1.371v-7.43h-1.371c-6.061 0-10.98-4.669-10.98-10.424v-1.298h-7.826v1.298c0 5.754-4.914 10.424-10.979 10.424h-1.369z"/></g></g></svg>